<svg xmlns="http://www.w3.org/2000/svg" viewBox="0 0 680 400" font-family="system-ui, -apple-system, sans-serif">
  <style>
    /* TJS Brand Palette */
    .bg { fill: #fafafa; stroke: #e4e4e4; }

    .section-old { fill: white; stroke: #ff1c24; stroke-width: 1.5; }
    .section-new { fill: white; stroke: #006736; stroke-width: 1.5; }
    .section-old-header { fill: #fff3f3; }
    .section-new-header { fill: #f0fff5; }

    .section-label-old { fill: #ff1c24; font-size: 13px; font-weight: 700; }
    .section-label-new { fill: #006736; font-size: 13px; font-weight: 700; }

    .node { fill: #f5f5f5; stroke: #9e9e9e; stroke-width: 1.5; }
    .node-edge { fill: #eef6ff; stroke: #3da8f4; stroke-width: 1.5; }
    .node-text { fill: #444; font-size: 14px; font-weight: 500; }
    .node-text-edge { fill: #1a6ab5; font-size: 14px; font-weight: 600; }

    .arrow-fwd { stroke: #9e9e9e; stroke-width: 1.5; fill: none; }
    .arrow-ret-bad { stroke: #ff1c24; stroke-width: 1.5; fill: none; }
    .arrow-good { stroke: #006736; stroke-width: 1.5; fill: none; }

    .lbl-fwd { fill: #888; font-size: 10px; }
    .lbl-ret-bad { fill: #ff1c24; font-size: 10px; font-weight: 600; }
    .lbl-good { fill: #006736; font-size: 10px; font-weight: 500; }
    .lbl-ret-good { fill: #006736; font-size: 10px; font-weight: 600; }

    .callout-bad { fill: #fff3f3; stroke: #ff1c24; stroke-dasharray: 4 3; }
    .callout-good { fill: #f0fff5; stroke: #006736; stroke-dasharray: 4 3; }
    .callout-text-bad { fill: #ff1c24; font-size: 11px; }
    .callout-text-good { fill: #006736; font-size: 11px; }

    .shadow { filter: drop-shadow(0 2px 3px rgba(0,0,0,0.1)); }

    .ah { fill: #9e9e9e; }
    .ah-bad { fill: #ff1c24; }
    .ah-good { fill: #006736; }
  </style>

  <defs>
    <marker id="a" viewBox="0 0 10 10" refX="9" refY="5" markerWidth="7" markerHeight="7" orient="auto-start-reverse">
      <path d="M0 0 L10 5 L0 10z" class="ah"/>
    </marker>
    <marker id="ab" viewBox="0 0 10 10" refX="9" refY="5" markerWidth="7" markerHeight="7" orient="auto-start-reverse">
      <path d="M0 0 L10 5 L0 10z" class="ah-bad"/>
    </marker>
    <marker id="ag" viewBox="0 0 10 10" refX="9" refY="5" markerWidth="7" markerHeight="7" orient="auto-start-reverse">
      <path d="M0 0 L10 5 L0 10z" class="ah-good"/>
    </marker>
  </defs>

  <rect width="680" height="400" rx="12" class="bg"/>

  <!-- OLD WAY -->
  <g class="shadow">
    <rect x="20" y="16" width="640" height="170" rx="8" class="section-old"/>
  </g>
  <rect x="20" y="16" width="640" height="32" rx="8" class="section-old-header"/>
  <rect x="20" y="36" width="640" height="12" class="section-old-header"/>
  <text x="40" y="38" class="section-label-old">OLD WAY: Data-to-Code</text>

  <rect x="50" y="70" width="120" height="50" rx="8" class="node"/>
  <text x="110" y="100" text-anchor="middle" class="node-text">Client</text>

  <rect x="280" y="70" width="120" height="50" rx="8" class="node"/>
  <text x="340" y="100" text-anchor="middle" class="node-text">Server</text>

  <rect x="510" y="70" width="120" height="50" rx="8" class="node"/>
  <text x="570" y="100" text-anchor="middle" class="node-text">Database</text>

  <line x1="170" y1="85" x2="275" y2="85" class="arrow-fwd" marker-end="url(#a)"/>
  <text x="222" y="78" text-anchor="middle" class="lbl-fwd">request</text>

  <line x1="400" y1="85" x2="505" y2="85" class="arrow-fwd" marker-end="url(#a)"/>
  <text x="452" y="78" text-anchor="middle" class="lbl-fwd">fetch 100 rows</text>

  <line x1="505" y1="105" x2="400" y2="105" class="arrow-ret-bad" marker-end="url(#ab)"/>
  <text x="452" y="118" text-anchor="middle" class="lbl-ret-bad">100 rows</text>

  <line x1="275" y1="105" x2="170" y2="105" class="arrow-ret-bad" marker-end="url(#ab)"/>
  <text x="222" y="118" text-anchor="middle" class="lbl-ret-bad">5 rows</text>

  <rect x="170" y="140" width="330" height="28" rx="14" class="callout-bad"/>
  <text x="335" y="158" text-anchor="middle" class="callout-text-bad">High latency. High bandwidth. Validate at every layer.</text>

  <!-- TJS WAY -->
  <g class="shadow">
    <rect x="20" y="210" width="640" height="174" rx="8" class="section-new"/>
  </g>
  <rect x="20" y="210" width="640" height="32" rx="8" class="section-new-header"/>
  <rect x="20" y="230" width="640" height="12" class="section-new-header"/>
  <text x="40" y="232" class="section-label-new">TJS WAY: Code-to-Data</text>

  <rect x="50" y="264" width="120" height="50" rx="8" class="node"/>
  <text x="110" y="294" text-anchor="middle" class="node-text">Client</text>

  <rect x="280" y="264" width="120" height="50" rx="8" class="node-edge"/>
  <text x="340" y="294" text-anchor="middle" class="node-text-edge">Edge</text>

  <rect x="510" y="264" width="120" height="50" rx="8" class="node"/>
  <text x="570" y="294" text-anchor="middle" class="node-text">Database</text>

  <line x1="170" y1="279" x2="275" y2="279" class="arrow-good" marker-end="url(#ag)"/>
  <text x="222" y="272" text-anchor="middle" class="lbl-good">send agent</text>

  <line x1="400" y1="279" x2="505" y2="279" class="arrow-good" marker-end="url(#ag)"/>
  <text x="452" y="272" text-anchor="middle" class="lbl-good">run at data</text>

  <line x1="505" y1="299" x2="400" y2="299" class="arrow-good" marker-end="url(#ag)"/>
  <text x="452" y="312" text-anchor="middle" class="lbl-ret-good">5 rows</text>

  <line x1="275" y1="299" x2="170" y2="299" class="arrow-good" marker-end="url(#ag)"/>
  <text x="222" y="312" text-anchor="middle" class="lbl-ret-good">5 rows</text>

  <rect x="170" y="334" width="330" height="28" rx="14" class="callout-good"/>
  <text x="335" y="352" text-anchor="middle" class="callout-text-good">Low latency. Zero waste. Validate once.</text>
</svg>