<?xml version="1.0" encoding="utf-8"?>
<svg x="0pt" y="0pt" width="48pt" height="48pt" viewBox="0 0 48 48" xmlns="http://www.w3.org/2000/svg" xmlns:xlink="http://www.w3.org/1999/xlink">
  <!--Generated by AMDN-->
  <g id="Layer_1">
    <g id="Layer_1-1">
      <g id="Layer_1_1">
        <g id="Group">
          <path id="Path" style="fill:#ff1c24;fill-opacity:1;fill-rule:evenodd;opacity:1;stroke:none;" d="M1,9 C1,4.58172,4.58172,1,9,1 C9,1,39,1,39,1 C43.4183,1,47,4.58172,47,9 C47,9,47,39,47,39 C47,43.4183,43.4183,47,39,47 C39,47,9,47,9,47 C4.58172,47,1,43.4183,1,39 C1,39,1,9,1,9 z"/>
          <g id="Group_1">
            <path id="Path_1" style="fill:#9e9e9e;fill-opacity:1;fill-rule:nonzero;opacity:1;stroke:#000000;stroke-linecap:round;stroke-linejoin:round;stroke-miterlimit:10;stroke-opacity:1;stroke-width:2;" d="M16,29 C16,29,10,31,10,35 C10,39,16,39,16,39"/>
            <path id="Path_Copy" style="fill:#9e9e9e;fill-opacity:1;fill-rule:nonzero;opacity:1;stroke:#000000;stroke-linecap:round;stroke-linejoin:round;stroke-miterlimit:10;stroke-opacity:1;stroke-width:2;" d="M32.0002,29 C32.0002,29,38.0002,31,38.0002,35 C38.0002,39,32.0002,39,32.0002,39"/>
            <path id="Path_2" style="fill:#ffffff;fill-opacity:1;fill-rule:evenodd;opacity:1;stroke:#000000;stroke-linecap:round;stroke-linejoin:round;stroke-miterlimit:10;stroke-opacity:1;stroke-width:2;" d="M9,10.1818 C9,7.87226,10.7909,6,13,6 C13,6,35,6,35,6 C37.2091,6,39,7.87226,39,10.1818 C39,10.1818,39,24.8182,39,24.8182 C39,27.1277,37.2091,29,35,29 C35,29,13,29,13,29 C10.7909,29,9,27.1277,9,24.8182 C9,24.8182,9,10.1818,9,10.1818 z"/>
            <path id="Path_3" style="fill:#ffffff;fill-opacity:1;fill-rule:nonzero;opacity:1;stroke:#000000;stroke-linecap:round;stroke-linejoin:round;stroke-miterlimit:10;stroke-opacity:1;stroke-width:2;" d="M24,11 C24,11,24,23,24,23"/>
            <path id="Path_4" style="fill:#ffffff;fill-opacity:1;fill-rule:nonzero;opacity:1;stroke:#000000;stroke-linecap:round;stroke-linejoin:round;stroke-miterlimit:10;stroke-opacity:1;stroke-width:2;" d="M28,15 C28,15,28,17,28,17"/>
            <path id="Path_Copy_1" style="fill:#ffffff;fill-opacity:1;fill-rule:nonzero;opacity:1;stroke:#000000;stroke-linecap:round;stroke-linejoin:round;stroke-miterlimit:10;stroke-opacity:1;stroke-width:2;" d="M20,15 C20,15,20,17,20,17"/>
            <path id="Path_5" style="fill:none;opacity:1;stroke:#000000;stroke-linecap:round;stroke-linejoin:round;stroke-miterlimit:10;stroke-opacity:1;stroke-width:2;" d="M32,43 C32,43,30,41,30,41 C30,41,28,43,28,43"/>
            <path id="Path_Copy_2" style="fill:none;opacity:1;stroke:#000000;stroke-linecap:round;stroke-linejoin:round;stroke-miterlimit:10;stroke-opacity:1;stroke-width:2;" d="M20,43 C20,43,18,41,18,41 C18,41,16,43,16,43"/>
            <path id="Path_6" style="fill:#e4e4e4;fill-opacity:1;fill-rule:evenodd;opacity:1;stroke:#000000;stroke-linecap:round;stroke-linejoin:round;stroke-miterlimit:10;stroke-opacity:1;stroke-width:2;" d="M16,29 C16,29,32,29,32,29 C32,29,32,39,32,39 C32,39,16,39,16,39 C16,39,16,29,16,29 z"/>
          </g>
        </g>
      </g>
    </g>
    <path id="Path-1" style="fill:#006736;fill-opacity:1;fill-rule:evenodd;opacity:1;stroke:#000000;stroke-linecap:round;stroke-linejoin:round;stroke-miterlimit:10;stroke-opacity:1;stroke-width:2;" d="M27,16 C27,16,34,16,34,16 C34,16,34,21,34,21 C34,21,27,21,27,21 C27,21,27,16,27,16 z"/>
    <path id="Path-2" style="fill:none;opacity:1;stroke:#000000;stroke-linecap:round;stroke-linejoin:round;stroke-miterlimit:10;stroke-opacity:1;stroke-width:2;" d="M21,18 C21,18,21,18,21,18 C21,16.8954,21.8954,16,23,16 C23,16,25,16,25,16 C26.1046,16,27,16.8954,27,18 C27,18,27,18,27,18"/>
    <path id="Path_Copy-1" style="fill:#006736;fill-opacity:1;fill-rule:evenodd;opacity:1;stroke:#000000;stroke-linecap:round;stroke-linejoin:round;stroke-miterlimit:10;stroke-opacity:1;stroke-width:2;" d="M14,16 C14,16,21,16,21,16 C21,16,21,21,21,21 C21,21,14,21,14,21 C14,21,14,16,14,16 z"/>
    <path id="Path_Copy-2" style="fill:#8e7f6d;fill-opacity:1;fill-rule:nonzero;opacity:1;stroke:#000000;stroke-linecap:round;stroke-linejoin:round;stroke-miterlimit:10;stroke-opacity:1;stroke-width:2;" d="M7,17 C7,17,12,16,12,16 C12,16,13,21,13,21 C13,21,16,20,16,20 C16,20,25,27,25,27 C25,27,25,39,25,39 C25,39,23,41,23,41 C23,41,6,41,6,41 C6,41,6,23,6,23 C6,23,8,22,8,22 C8,22,7,17,7,17 z"/>
    <path id="Compound_Group" style="fill:#c6b199;fill-opacity:1;fill-rule:evenodd;opacity:1;stroke:#000000;stroke-linecap:butt;stroke-linejoin:miter;stroke-miterlimit:10;stroke-opacity:1;stroke-width:2;" d="M21.7198,23.9799 C21.7198,23.9799,30.1325,25.1948,30.1325,25.1948 C30.9524,25.3132,31.5211,26.0738,31.4027,26.8938 C31.4027,26.8938,29.9734,36.7911,29.9734,36.7911 C29.855,37.611,29.0944,38.1797,28.2744,38.0613 C28.2744,38.0613,12.4387,35.7744,12.4387,35.7744 C11.6188,35.656,11.0501,34.8954,11.1685,34.0754 C11.1685,34.0754,12.7407,23.1884,12.7407,23.1884 C12.7407,23.1884,13.0266,21.2089,13.0266,21.2089 C13.145,20.389,13.9056,19.8203,14.7256,19.9387 C14.7256,19.9387,20.664,20.7963,20.664,20.7963 C21.4839,20.9147,22.0526,21.6754,21.9342,22.4953 C21.9342,22.4953,21.7198,23.9799,21.7198,23.9799 z"/>
    <path id="Path-3" style="fill:#8e7f6d;fill-opacity:1;fill-rule:nonzero;opacity:1;stroke:#000000;stroke-linecap:round;stroke-linejoin:round;stroke-miterlimit:10;stroke-opacity:1;stroke-width:2;" d="M41,17 C41,17,36,16,36,16 C36,16,35,21,35,21 C35,21,32,20,32,20 C32,20,23,27,23,27 C23,27,23,39,23,39 C23,39,25,41,25,41 C25,41,42,41,42,41 C42,41,42,23,42,23 C42,23,40,22,40,22 C40,22,41,17,41,17 z"/>
  </g>
</svg>
